<?xml version="1.0" encoding="UTF-8" standalone="no"?>
<!DOCTYPE svg PUBLIC "-//W3C//DTD SVG 1.0//EN" "http://www.w3.org/TR/2001/PR-SVG-20010719/DTD/svg10.dtd">
<svg width="74cm" height="41cm" viewBox="-177 -45 1477 820" xmlns="http://www.w3.org/2000/svg" xmlns:xlink="http://www.w3.org/1999/xlink">
  <g>
    <rect style="fill: #ffa500" x="318" y="230" width="89.6" height="36"/>
    <rect style="fill: none; fill-opacity:0; stroke-width: 2; stroke: #000000" x="318" y="230" width="89.6" height="36"/>
    <text style="fill: #000000;text-anchor:middle;font-size:12.8;font-family:monospace;font-style:normal;font-weight:normal" x="362.8" y="252">Compound</text>
  </g>
  <g>
    <ellipse style="fill: #ffffff" cx="167.443" cy="289.942" rx="50.8" ry="18"/>
    <ellipse style="fill: none; fill-opacity:0; stroke-width: 2; stroke: #000000" cx="167.443" cy="289.942" rx="50.8" ry="18"/>
    <text style="fill: #000000;text-anchor:middle;font-size:12.8;font-family:monospace;font-style:normal;font-weight:normal" x="167.443" y="293.942">InChiKey</text>
  </g>
  <g>
    <line style="fill: none; fill-opacity:0; stroke-width: 2; stroke: #000000" x1="318" y1="248" x2="227.217" y2="286.169"/>
    <polygon style="fill: #000000" points="220.303,289.075 227.584,280.59 227.217,286.169 231.46,289.809 "/>
    <polygon style="fill: none; fill-opacity:0; stroke-width: 2; stroke: #000000" points="220.303,289.075 227.584,280.59 227.217,286.169 231.46,289.809 "/>
  </g>
  <g>
    <rect style="fill: #387738" x="510" y="128" width="135.8" height="36"/>
    <rect style="fill: none; fill-opacity:0; stroke-width: 2; stroke: #000000" x="510" y="128" width="135.8" height="36"/>
    <text style="fill: #000000;text-anchor:middle;font-size:12.8;font-family:monospace;font-style:normal;font-weight:normal" x="577.9" y="150">Representation</text>
  </g>
  <g>
    <polygon style="fill: #ffffff" points="386.106,146.294 425.356,122.744 464.606,146.294 425.356,169.844 "/>
    <polygon style="fill: none; fill-opacity:0; stroke-width: 2; stroke: #000000" points="386.106,146.294 425.356,122.744 464.606,146.294 425.356,169.844 "/>
    <text style="fill: #000000;text-anchor:end;font-size:12.8;font-family:monospace;font-style:normal;font-weight:normal" x="380.106" y="140.294"></text>
    <text style="fill: #000000;text-anchor:start;font-size:12.8;font-family:monospace;font-style:normal;font-weight:normal" x="470.606" y="140.294"></text>
    <text style="fill: #000000;text-anchor:middle;font-size:12.8;font-family:monospace;font-style:normal;font-weight:normal" x="425.356" y="150.294">1 - M</text>
  </g>
  <g>
    <line style="fill: none; fill-opacity:0; stroke-width: 2; stroke: #000000" x1="464.606" y1="146.294" x2="500.264" y2="146.063"/>
    <polygon style="fill: #000000" points="507.764,146.014 497.797,151.079 500.264,146.063 497.732,141.079 "/>
    <polygon style="fill: none; fill-opacity:0; stroke-width: 2; stroke: #000000" points="507.764,146.014 497.797,151.079 500.264,146.063 497.732,141.079 "/>
  </g>
  <g>
    <ellipse style="fill: #ffffff" cx="755.4" cy="98" rx="35.4" ry="18"/>
    <ellipse style="fill: none; fill-opacity:0; stroke-width: 2; stroke: #000000" cx="755.4" cy="98" rx="35.4" ry="18"/>
    <text style="fill: #000000;text-anchor:middle;font-size:12.8;font-family:monospace;font-style:normal;font-weight:normal" x="755.4" y="102">Name</text>
  </g>
  <g>
    <line style="fill: none; fill-opacity:0; stroke-width: 2; stroke: #000000" x1="645.8" y1="146" x2="711.825" y2="103.288"/>
    <polygon style="fill: #000000" points="718.123,99.2145 712.442,108.844 711.825,103.288 707.01,100.448 "/>
    <polygon style="fill: none; fill-opacity:0; stroke-width: 2; stroke: #000000" points="718.123,99.2145 712.442,108.844 711.825,103.288 707.01,100.448 "/>
  </g>
  <g>
    <ellipse style="fill: #ffffff" cx="788.95" cy="143" rx="46.95" ry="18"/>
    <ellipse style="fill: none; fill-opacity:0; stroke-width: 2; stroke: #000000" cx="788.95" cy="143" rx="46.95" ry="18"/>
    <text style="fill: #000000;text-anchor:middle;font-size:12.8;font-family:monospace;font-style:normal;font-weight:normal" x="788.95" y="147">Content</text>
  </g>
  <g>
    <line style="fill: none; fill-opacity:0; stroke-width: 2; stroke: #000000" x1="645.8" y1="146" x2="732.269" y2="143.303"/>
    <polygon style="fill: #000000" points="739.765,143.07 729.926,148.379 732.269,143.303 729.614,138.384 "/>
    <polygon style="fill: none; fill-opacity:0; stroke-width: 2; stroke: #000000" points="739.765,143.07 729.926,148.379 732.269,143.303 729.614,138.384 "/>
  </g>
  <g>
    <ellipse style="fill: #ffffff" cx="769.95" cy="187" rx="46.95" ry="18"/>
    <ellipse style="fill: none; fill-opacity:0; stroke-width: 2; stroke: #000000" cx="769.95" cy="187" rx="46.95" ry="18"/>
    <text style="fill: #000000;text-anchor:middle;font-size:12.8;font-family:monospace;font-style:normal;font-weight:normal" x="769.95" y="191">Comment</text>
  </g>
  <g>
    <line style="fill: none; fill-opacity:0; stroke-width: 2; stroke: #000000" x1="645.8" y1="146" x2="714.401" y2="182.433"/>
    <polygon style="fill: #000000" points="721.025,185.951 709.848,185.677 714.401,182.433 714.539,176.845 "/>
    <polygon style="fill: none; fill-opacity:0; stroke-width: 2; stroke: #000000" points="721.025,185.951 709.848,185.677 714.401,182.433 714.539,176.845 "/>
  </g>
  <g>
    <polygon style="fill: #ffffff" points="521.942,247.62 561.192,224.07 600.442,247.62 561.192,271.17 "/>
    <polygon style="fill: none; fill-opacity:0; stroke-width: 2; stroke: #000000" points="521.942,247.62 561.192,224.07 600.442,247.62 561.192,271.17 "/>
    <text style="fill: #000000;text-anchor:end;font-size:12.8;font-family:monospace;font-style:normal;font-weight:normal" x="515.942" y="241.62"></text>
    <text style="fill: #000000;text-anchor:start;font-size:12.8;font-family:monospace;font-style:normal;font-weight:normal" x="606.442" y="241.62"></text>
    <text style="fill: #000000;text-anchor:middle;font-size:12.8;font-family:monospace;font-style:normal;font-weight:normal" x="561.192" y="251.62">1 - M</text>
  </g>
  <g>
    <polyline style="fill: none; fill-opacity:0; stroke-width: 2; stroke: #000000" points="362.8,230 362.8,199.922 425.356,199.922 425.356,179.58 "/>
    <polygon style="fill: #000000" points="425.356,172.08 430.356,182.08 425.356,179.58 420.356,182.08 "/>
    <polygon style="fill: none; fill-opacity:0; stroke-width: 2; stroke: #000000" points="425.356,172.08 430.356,182.08 425.356,179.58 420.356,182.08 "/>
  </g>
  <g>
    <polyline style="fill: none; fill-opacity:0; stroke-width: 2; stroke: #000000" points="407.6,248 464.771,248 464.771,247.62 512.206,247.62 "/>
    <polygon style="fill: #000000" points="519.706,247.62 509.706,252.62 512.206,247.62 509.706,242.62 "/>
    <polygon style="fill: none; fill-opacity:0; stroke-width: 2; stroke: #000000" points="519.706,247.62 509.706,252.62 512.206,247.62 509.706,242.62 "/>
  </g>
  <g>
    <polyline style="fill: none; fill-opacity:0; stroke-width: 2; stroke: #000000" points="561.192,271.17 561.192,291.17 362.8,291.17 362.8,275.736 "/>
    <polygon style="fill: #000000" points="362.8,268.236 367.8,278.236 362.8,275.736 357.8,278.236 "/>
    <polygon style="fill: none; fill-opacity:0; stroke-width: 2; stroke: #000000" points="362.8,268.236 367.8,278.236 362.8,275.736 357.8,278.236 "/>
  </g>
  <g>
    <rect style="fill: #b6b1c7" x="307" y="595" width="89.6" height="36"/>
    <rect style="fill: none; fill-opacity:0; stroke-width: 2; stroke: #000000" x="307" y="595" width="89.6" height="36"/>
    <text style="fill: #000000;text-anchor:middle;font-size:12.8;font-family:monospace;font-style:normal;font-weight:normal" x="351.8" y="617">Property</text>
  </g>
  <g>
    <ellipse style="fill: #ffffff" cx="184.4" cy="531" rx="35.4" ry="18"/>
    <ellipse style="fill: none; fill-opacity:0; stroke-width: 2; stroke: #000000" cx="184.4" cy="531" rx="35.4" ry="18"/>
    <text style="fill: #000000;text-anchor:middle;font-size:12.8;font-family:monospace;font-style:normal;font-weight:normal" x="184.4" y="535">Name</text>
  </g>
  <g>
    <ellipse style="fill: #ffffff" cx="144.4" cy="571" rx="35.4" ry="18"/>
    <ellipse style="fill: none; fill-opacity:0; stroke-width: 2; stroke: #000000" cx="144.4" cy="571" rx="35.4" ry="18"/>
    <text style="fill: #000000;text-anchor:middle;font-size:12.8;font-family:monospace;font-style:normal;font-weight:normal" x="144.4" y="575">Unit</text>
  </g>
  <g>
    <rect style="fill: #f2ee33" x="641" y="595" width="97.3" height="36"/>
    <rect style="fill: none; fill-opacity:0; stroke-width: 2; stroke: #000000" x="641" y="595" width="97.3" height="36"/>
    <text style="fill: #000000;text-anchor:middle;font-size:12.8;font-family:monospace;font-style:normal;font-weight:normal" x="689.65" y="617">Condition</text>
  </g>
  <g>
    <polygon style="fill: #ffffff" points="471.914,580.658 503.464,561.728 535.014,580.658 503.464,599.588 "/>
    <polygon style="fill: none; fill-opacity:0; stroke-width: 2; stroke: #000000" points="471.914,580.658 503.464,561.728 535.014,580.658 503.464,599.588 "/>
    <text style="fill: #000000;text-anchor:end;font-size:12.8;font-family:monospace;font-style:normal;font-weight:normal" x="465.914" y="574.658"></text>
    <text style="fill: #000000;text-anchor:start;font-size:12.8;font-family:monospace;font-style:normal;font-weight:normal" x="541.014" y="574.658"></text>
    <text style="fill: #000000;text-anchor:middle;font-size:12.8;font-family:monospace;font-style:normal;font-weight:normal" x="503.464" y="584.658">1-M</text>
  </g>
  <g>
    <polyline style="fill: none; fill-opacity:0; stroke-width: 2; stroke: #000000" points="396.6,613 434.257,613 434.257,580.658 462.178,580.658 "/>
    <polygon style="fill: #000000" points="469.678,580.658 459.678,585.658 462.178,580.658 459.678,575.658 "/>
    <polygon style="fill: none; fill-opacity:0; stroke-width: 2; stroke: #000000" points="469.678,580.658 459.678,585.658 462.178,580.658 459.678,575.658 "/>
  </g>
  <g>
    <polyline style="fill: none; fill-opacity:0; stroke-width: 2; stroke: #000000" points="535.014,580.658 588.007,580.658 588.007,613 631.264,613 "/>
    <polygon style="fill: #000000" points="638.764,613 628.764,618 631.264,613 628.764,608 "/>
    <polygon style="fill: none; fill-opacity:0; stroke-width: 2; stroke: #000000" points="638.764,613 628.764,618 631.264,613 628.764,608 "/>
  </g>
  <g>
    <line style="fill: none; fill-opacity:0; stroke-width: 2; stroke: #000000" x1="307" y1="613" x2="226.893" y2="537.67"/>
    <polygon style="fill: #000000" points="221.429,532.532 232.139,535.74 226.893,537.67 225.289,543.025 "/>
    <polygon style="fill: none; fill-opacity:0; stroke-width: 2; stroke: #000000" points="221.429,532.532 232.139,535.74 226.893,537.67 225.289,543.025 "/>
  </g>
  <g>
    <line style="fill: none; fill-opacity:0; stroke-width: 2; stroke: #000000" x1="307" y1="613" x2="189.045" y2="574.053"/>
    <polygon style="fill: #000000" points="181.923,571.701 192.987,570.089 189.045,574.053 189.851,579.584 "/>
    <polygon style="fill: none; fill-opacity:0; stroke-width: 2; stroke: #000000" points="181.923,571.701 192.987,570.089 189.045,574.053 189.851,579.584 "/>
  </g>
  <text style="fill: #000000;text-anchor:start;font-size:12.8;font-family:sanserif;font-style:normal;font-weight:normal" x="98" y="323">
    <tspan x="98" y="323">Primary Key - Identifier</tspan>
  </text>
  <text style="fill: #000000;text-anchor:start;font-size:12.8;font-family:sanserif;font-style:normal;font-weight:normal" x="280" y="654">
    <tspan x="280" y="654">Register predefined standard</tspan>
    <tspan x="280" y="670">properties (MW, etc)</tspan>
  </text>
  <g>
    <rect style="fill: #00ff00" x="271.556" y="403" width="135.8" height="36"/>
    <rect style="fill: none; fill-opacity:0; stroke-width: 2; stroke: #000000" x="271.556" y="403" width="135.8" height="36"/>
    <text style="fill: #000000;text-anchor:middle;font-size:12.8;font-family:monospace;font-style:normal;font-weight:normal" x="339.456" y="425">Property Value</text>
  </g>
  <g>
    <polygon style="fill: #ffffff" points="320.13,510.744 351.68,491.814 383.23,510.744 351.68,529.674 "/>
    <polygon style="fill: none; fill-opacity:0; stroke-width: 2; stroke: #000000" points="320.13,510.744 351.68,491.814 383.23,510.744 351.68,529.674 "/>
    <text style="fill: #000000;text-anchor:end;font-size:12.8;font-family:monospace;font-style:normal;font-weight:normal" x="314.13" y="504.744"></text>
    <text style="fill: #000000;text-anchor:start;font-size:12.8;font-family:monospace;font-style:normal;font-weight:normal" x="389.23" y="504.744"></text>
    <text style="fill: #000000;text-anchor:middle;font-size:12.8;font-family:monospace;font-style:normal;font-weight:normal" x="351.68" y="514.744">M-1</text>
  </g>
  <g>
    <line style="fill: none; fill-opacity:0; stroke-width: 2; stroke: #000000" x1="339.456" y1="439" x2="349.485" y2="482.329"/>
    <polygon style="fill: #000000" points="351.176,489.636 344.05,481.021 349.485,482.329 353.792,478.766 "/>
    <polygon style="fill: none; fill-opacity:0; stroke-width: 2; stroke: #000000" points="351.176,489.636 344.05,481.021 349.485,482.329 353.792,478.766 "/>
  </g>
  <g>
    <line style="fill: none; fill-opacity:0; stroke-width: 2; stroke: #000000" x1="351.68" y1="529.674" x2="351.782" y2="585.264"/>
    <polygon style="fill: #000000" points="351.796,592.764 346.778,582.773 351.782,585.264 356.778,582.755 "/>
    <polygon style="fill: none; fill-opacity:0; stroke-width: 2; stroke: #000000" points="351.796,592.764 346.778,582.773 351.782,585.264 356.778,582.755 "/>
  </g>
  <g>
    <polygon style="fill: #ffffff" points="299.616,340.678 338.866,317.128 378.116,340.678 338.866,364.228 "/>
    <polygon style="fill: none; fill-opacity:0; stroke-width: 2; stroke: #000000" points="299.616,340.678 338.866,317.128 378.116,340.678 338.866,364.228 "/>
    <text style="fill: #000000;text-anchor:end;font-size:12.8;font-family:monospace;font-style:normal;font-weight:normal" x="293.616" y="334.678"></text>
    <text style="fill: #000000;text-anchor:start;font-size:12.8;font-family:monospace;font-style:normal;font-weight:normal" x="384.116" y="334.678"></text>
    <text style="fill: #000000;text-anchor:middle;font-size:12.8;font-family:monospace;font-style:normal;font-weight:normal" x="338.866" y="344.678">M - M</text>
  </g>
  <g>
    <line style="fill: none; fill-opacity:0; stroke-width: 2; stroke: #000000" x1="362.8" y1="266" x2="342.994" y2="308.31"/>
    <polygon style="fill: #000000" points="339.814,315.103 339.525,303.926 342.994,308.31 348.582,308.166 "/>
    <polygon style="fill: none; fill-opacity:0; stroke-width: 2; stroke: #000000" points="339.814,315.103 339.525,303.926 342.994,308.31 348.582,308.166 "/>
  </g>
  <g>
    <line style="fill: none; fill-opacity:0; stroke-width: 2; stroke: #000000" x1="338.866" y1="364.228" x2="339.308" y2="393.265"/>
    <polygon style="fill: #000000" points="339.422,400.764 334.27,390.841 339.308,393.265 344.269,390.689 "/>
    <polygon style="fill: none; fill-opacity:0; stroke-width: 2; stroke: #000000" points="339.422,400.764 334.27,390.841 339.308,393.265 344.269,390.689 "/>
  </g>
  <g>
    <ellipse style="fill: #ffffff" cx="504.65" cy="378" rx="54.65" ry="18"/>
    <ellipse style="fill: none; fill-opacity:0; stroke-width: 2; stroke: #000000" cx="504.65" cy="378" rx="54.65" ry="18"/>
    <text style="fill: #000000;text-anchor:middle;font-size:12.8;font-family:monospace;font-style:normal;font-weight:normal" x="504.65" y="382">dbl_value</text>
  </g>
  <g>
    <line style="fill: none; fill-opacity:0; stroke-width: 2; stroke: #000000" x1="407.356" y1="421" x2="443.144" y2="384.913"/>
    <polygon style="fill: #000000" points="448.425,379.588 444.934,390.209 443.144,384.913 437.834,383.167 "/>
    <polygon style="fill: none; fill-opacity:0; stroke-width: 2; stroke: #000000" points="448.425,379.588 444.934,390.209 443.144,384.913 437.834,383.167 "/>
  </g>
  <g>
    <ellipse style="fill: #ffffff" cx="155.4" cy="620" rx="35.4" ry="18"/>
    <ellipse style="fill: none; fill-opacity:0; stroke-width: 2; stroke: #000000" cx="155.4" cy="620" rx="35.4" ry="18"/>
    <text style="fill: #000000;text-anchor:middle;font-size:12.8;font-family:monospace;font-style:normal;font-weight:normal" x="155.4" y="624">Type</text>
  </g>
  <g>
    <line style="fill: none; fill-opacity:0; stroke-width: 2; stroke: #000000" x1="307" y1="613" x2="200.518" y2="619.415"/>
    <polygon style="fill: #000000" points="193.032,619.866 202.713,614.273 200.518,619.415 203.315,624.255 "/>
    <polygon style="fill: none; fill-opacity:0; stroke-width: 2; stroke: #000000" points="193.032,619.866 202.713,614.273 200.518,619.415 203.315,624.255 "/>
  </g>
  <g>
    <ellipse style="fill: #ffffff" cx="658.118" cy="488.082" rx="73.9" ry="18"/>
    <ellipse style="fill: none; fill-opacity:0; stroke-width: 2; stroke: #000000" cx="658.118" cy="488.082" rx="73.9" ry="18"/>
    <text style="fill: #000000;text-anchor:middle;font-size:12.8;font-family:monospace;font-style:normal;font-weight:normal" x="658.118" y="492.082">Condition Name</text>
  </g>
  <g>
    <ellipse style="fill: #ffffff" cx="777.746" cy="522.442" rx="77.75" ry="18"/>
    <ellipse style="fill: none; fill-opacity:0; stroke-width: 2; stroke: #000000" cx="777.746" cy="522.442" rx="77.75" ry="18"/>
    <text style="fill: #000000;text-anchor:middle;font-size:12.8;font-family:monospace;font-style:normal;font-weight:normal" x="777.746" y="526.442">Condition Value</text>
  </g>
  <g>
    <line style="fill: none; fill-opacity:0; stroke-width: 2; stroke: #000000" x1="689.65" y1="595" x2="661.372" y2="515.258"/>
    <polygon style="fill: #000000" points="658.865,508.189 666.92,515.943 661.372,515.258 657.495,519.286 "/>
    <polygon style="fill: none; fill-opacity:0; stroke-width: 2; stroke: #000000" points="658.865,508.189 666.92,515.943 661.372,515.258 657.495,519.286 "/>
  </g>
  <g>
    <line style="fill: none; fill-opacity:0; stroke-width: 2; stroke: #000000" x1="691.084" y1="593.76" x2="769.454" y2="545.544"/>
    <polygon style="fill: #000000" points="775.842,541.614 769.944,551.112 769.454,545.544 764.704,542.595 "/>
    <polygon style="fill: none; fill-opacity:0; stroke-width: 2; stroke: #000000" points="775.842,541.614 769.944,551.112 769.454,545.544 764.704,542.595 "/>
  </g>
  <g>
    <rect style="fill: #d4ade2" x="-4.03044" y="404.506" width="128.1" height="36"/>
    <rect style="fill: none; fill-opacity:0; stroke-width: 2; stroke: #000000" x="-4.03044" y="404.506" width="128.1" height="36"/>
    <text style="fill: #000000;text-anchor:middle;font-size:12.8;font-family:monospace;font-style:normal;font-weight:normal" x="60.0196" y="426.506">Bib Reference</text>
  </g>
  <g>
    <polygon style="fill: #ffffff" points="155.523,421.34 194.773,397.79 234.023,421.34 194.773,444.89 "/>
    <polygon style="fill: none; fill-opacity:0; stroke-width: 2; stroke: #000000" points="155.523,421.34 194.773,397.79 234.023,421.34 194.773,444.89 "/>
    <text style="fill: #000000;text-anchor:end;font-size:12.8;font-family:monospace;font-style:normal;font-weight:normal" x="149.523" y="415.34"></text>
    <text style="fill: #000000;text-anchor:start;font-size:12.8;font-family:monospace;font-style:normal;font-weight:normal" x="240.023" y="415.34"></text>
    <text style="fill: #000000;text-anchor:middle;font-size:12.8;font-family:monospace;font-style:normal;font-weight:normal" x="194.773" y="425.34">M - 1</text>
  </g>
  <g>
    <line style="fill: none; fill-opacity:0; stroke-width: 2; stroke: #000000" x1="271.556" y1="421" x2="243.76" y2="421.252"/>
    <polygon style="fill: #000000" points="236.26,421.32 246.214,416.229 243.76,421.252 246.305,426.229 "/>
    <polygon style="fill: none; fill-opacity:0; stroke-width: 2; stroke: #000000" points="236.26,421.32 246.214,416.229 243.76,421.252 246.305,426.229 "/>
  </g>
  <g>
    <line style="fill: none; fill-opacity:0; stroke-width: 2; stroke: #000000" x1="155.523" y1="421.34" x2="133.799" y2="422.145"/>
    <polygon style="fill: #000000" points="126.304,422.423 136.112,417.056 133.799,422.145 136.482,427.049 "/>
    <polygon style="fill: none; fill-opacity:0; stroke-width: 2; stroke: #000000" points="126.304,422.423 136.112,417.056 133.799,422.145 136.482,427.049 "/>
  </g>
  <g>
    <ellipse style="fill: #ffffff" cx="853.32" cy="597.05" rx="62.35" ry="18"/>
    <ellipse style="fill: none; fill-opacity:0; stroke-width: 2; stroke: #000000" cx="853.32" cy="597.05" rx="62.35" ry="18"/>
    <text style="fill: #000000;text-anchor:middle;font-size:12.8;font-family:monospace;font-style:normal;font-weight:normal" x="853.32" y="601.05">Description</text>
  </g>
  <g>
    <line style="fill: none; fill-opacity:0; stroke-width: 2; stroke: #000000" x1="738.3" y1="613" x2="781.652" y2="599.872"/>
    <polygon style="fill: #000000" points="788.83,597.698 780.708,605.382 781.652,599.872 777.81,595.811 "/>
    <polygon style="fill: none; fill-opacity:0; stroke-width: 2; stroke: #000000" points="788.83,597.698 780.708,605.382 781.652,599.872 777.81,595.811 "/>
  </g>
  <text style="fill: #000000;text-anchor:start;font-size:12.8;font-family:sanserif;font-style:normal;font-weight:normal" x="564.97" y="389.05">
    <tspan x="564.97" y="389.05">In the DB, numeric, string and</tspan>
    <tspan x="564.97" y="405.05">binary values should be stored in</tspan>
    <tspan x="564.97" y="421.05">separate fields to facilitate querying.</tspan>
  </text>
  <text style="fill: #000000;text-anchor:start;font-size:12.8;font-family:sanserif;font-style:normal;font-weight:normal" x="866.97" y="497.05">
    <tspan x="866.97" y="497.05">In the DB, we defferentiate between</tspan>
    <tspan x="866.97" y="513.05">numeric, string and binary conditions </tspan>
    <tspan x="866.97" y="529.05">using different fields.</tspan>
  </text>
  <g>
    <ellipse style="fill: #ffffff" cx="852.47" cy="658.05" rx="58.5" ry="18"/>
    <ellipse style="fill: none; fill-opacity:0; stroke-width: 2; stroke: #000000" cx="852.47" cy="658.05" rx="58.5" ry="18"/>
    <text style="fill: #000000;text-anchor:middle;font-size:12.8;font-family:monospace;font-style:normal;font-weight:normal" x="852.47" y="662.05">Value Type</text>
  </g>
  <g>
    <line style="fill: none; fill-opacity:0; stroke-width: 2; stroke: #000000" x1="738.3" y1="613" x2="786.402" y2="651.925"/>
    <polygon style="fill: #000000" points="792.232,656.643 781.313,654.24 786.402,651.925 787.604,646.466 "/>
    <polygon style="fill: none; fill-opacity:0; stroke-width: 2; stroke: #000000" points="792.232,656.643 781.313,654.24 786.402,651.925 787.604,646.466 "/>
  </g>
  <g>
    <rect style="fill: #e36752" x="1050" y="268.118" width="81.9" height="36"/>
    <rect style="fill: none; fill-opacity:0; stroke-width: 2; stroke: #000000" x="1050" y="268.118" width="81.9" height="36"/>
    <text style="fill: #000000;text-anchor:middle;font-size:12.8;font-family:monospace;font-style:normal;font-weight:normal" x="1090.95" y="290.118">Dataset</text>
  </g>
  <text style="fill: #000000;text-anchor:start;font-size:12.8;font-family:sanserif;font-style:normal;font-weight:normal" x="1035" y="242.118">
    <tspan x="1035" y="242.118">A dataset consists of a set of Compounds</tspan>
    <tspan x="1035" y="258.118">and a set of properties.</tspan>
  </text>
  <g>
    <rect style="fill: #ffa500" x="787.1" y="252.118" width="89.6" height="36"/>
    <rect style="fill: none; fill-opacity:0; stroke-width: 2; stroke: #000000" x="787.1" y="252.118" width="89.6" height="36"/>
    <text style="fill: #000000;text-anchor:middle;font-size:12.8;font-family:monospace;font-style:normal;font-weight:normal" x="831.9" y="274.118">Compound</text>
  </g>
  <g>
    <rect style="fill: #b6b1c7" x="795.1" y="336.118" width="89.6" height="36"/>
    <rect style="fill: none; fill-opacity:0; stroke-width: 2; stroke: #000000" x="795.1" y="336.118" width="89.6" height="36"/>
    <text style="fill: #000000;text-anchor:middle;font-size:12.8;font-family:monospace;font-style:normal;font-weight:normal" x="839.9" y="358.118">Property</text>
  </g>
  <text style="fill: #000000;text-anchor:start;font-size:12.8;font-family:sanserif;font-style:normal;font-weight:normal" x="552" y="676.05">
    <tspan x="552" y="676.05">Note: Each property comes with </tspan>
    <tspan x="552" y="692.05">some conditions. If we query the property</tspan>
    <tspan x="552" y="708.05">called LC50 we will get all these LC50-related properties.</tspan>
    <tspan x="552" y="724.05">For example LC50 for fish, cows, mice etc... One might</tspan>
    <tspan x="552" y="740.05">need to query for THE particular LC50 they need</tspan>
    <tspan x="552" y="756.05">or specify a range, e.g. LC50 with x&lt;10 where x is</tspan>
    <tspan x="552" y="772.05">an experimental condition.</tspan>
  </text>
  <text style="fill: #000000;text-anchor:start;font-size:12.8;font-family:sanserif;font-style:normal;font-weight:normal" x="218" y="701.248">
    <tspan x="218" y="701.248">Note: Each property actually refers to a group</tspan>
    <tspan x="218" y="717.248">of properties that are somehow related. One</tspan>
    <tspan x="218" y="733.248">should wary with the different underlying expe-</tspan>
    <tspan x="218" y="749.248">rimental conditions!!!</tspan>
  </text>
  <text style="fill: #000000;text-anchor:start;font-size:12.8;font-family:sanserif;font-style:normal;font-weight:normal" x="422" y="519.1">
    <tspan x="422" y="519.1">We may not need to specify</tspan>
    <tspan x="422" y="535.1">a condition if the property is not</tspan>
    <tspan x="422" y="551.1">experimental</tspan>
  </text>
  <g>
    <ellipse style="fill: #ffffff" cx="99.75" cy="670.1" rx="77.75" ry="18"/>
    <ellipse style="fill: none; fill-opacity:0; stroke-width: 2; stroke: #000000" cx="99.75" cy="670.1" rx="77.75" ry="18"/>
    <text style="fill: #000000;text-anchor:middle;font-size:12.8;font-family:monospace;font-style:normal;font-weight:normal" x="99.75" y="674.1">is Experimental</text>
  </g>
  <g>
    <line style="fill: none; fill-opacity:0; stroke-width: 2; stroke: #000000" x1="307" y1="613" x2="186.409" y2="666.172"/>
    <polygon style="fill: #000000" points="179.546,669.198 186.679,660.588 186.409,666.172 190.713,669.738 "/>
    <polygon style="fill: none; fill-opacity:0; stroke-width: 2; stroke: #000000" points="179.546,669.198 186.679,660.588 186.409,666.172 190.713,669.738 "/>
  </g>
  <g>
    <polygon style="fill: #ffffff" points="921,268.8 960.25,245.25 999.5,268.8 960.25,292.35 "/>
    <polygon style="fill: none; fill-opacity:0; stroke-width: 2; stroke: #000000" points="921,268.8 960.25,245.25 999.5,268.8 960.25,292.35 "/>
    <text style="fill: #000000;text-anchor:end;font-size:12.8;font-family:monospace;font-style:normal;font-weight:normal" x="915" y="262.8"></text>
    <text style="fill: #000000;text-anchor:start;font-size:12.8;font-family:monospace;font-style:normal;font-weight:normal" x="1005.5" y="262.8"></text>
    <text style="fill: #000000;text-anchor:middle;font-size:12.8;font-family:monospace;font-style:normal;font-weight:normal" x="960.25" y="272.8">M - M</text>
  </g>
  <g>
    <polygon style="fill: #ffffff" points="923.1,346.8 962.35,323.25 1001.6,346.8 962.35,370.35 "/>
    <polygon style="fill: none; fill-opacity:0; stroke-width: 2; stroke: #000000" points="923.1,346.8 962.35,323.25 1001.6,346.8 962.35,370.35 "/>
    <text style="fill: #000000;text-anchor:end;font-size:12.8;font-family:monospace;font-style:normal;font-weight:normal" x="917.1" y="340.8"></text>
    <text style="fill: #000000;text-anchor:start;font-size:12.8;font-family:monospace;font-style:normal;font-weight:normal" x="1007.6" y="340.8"></text>
    <text style="fill: #000000;text-anchor:middle;font-size:12.8;font-family:monospace;font-style:normal;font-weight:normal" x="962.35" y="350.8">M - M</text>
  </g>
  <g>
    <line style="fill: none; fill-opacity:0; stroke-width: 2; stroke: #000000" x1="1050" y1="286.118" x2="1008.71" y2="271.958"/>
    <polygon style="fill: #000000" points="1001.62,269.525 1012.7,268.04 1008.71,271.958 1009.45,277.499 "/>
    <polygon style="fill: none; fill-opacity:0; stroke-width: 2; stroke: #000000" points="1001.62,269.525 1012.7,268.04 1008.71,271.958 1009.45,277.499 "/>
  </g>
  <g>
    <line style="fill: none; fill-opacity:0; stroke-width: 2; stroke: #000000" x1="921" y1="268.8" x2="886.432" y2="269.828"/>
    <polygon style="fill: #000000" points="878.935,270.052 888.782,264.756 886.432,269.828 889.079,274.752 "/>
    <polygon style="fill: none; fill-opacity:0; stroke-width: 2; stroke: #000000" points="878.935,270.052 888.782,264.756 886.432,269.828 889.079,274.752 "/>
  </g>
  <g>
    <line style="fill: none; fill-opacity:0; stroke-width: 2; stroke: #000000" x1="1050" y1="286.118" x2="1007.67" y2="339.189"/>
    <polygon style="fill: #000000" points="1002.99,345.052 1005.32,334.116 1007.67,339.189 1013.14,340.352 "/>
    <polygon style="fill: none; fill-opacity:0; stroke-width: 2; stroke: #000000" points="1002.99,345.052 1005.32,334.116 1007.67,339.189 1013.14,340.352 "/>
  </g>
  <g>
    <line style="fill: none; fill-opacity:0; stroke-width: 2; stroke: #000000" x1="923.1" y1="346.8" x2="894.264" y2="352.295"/>
    <polygon style="fill: #000000" points="886.897,353.699 895.784,346.916 894.264,352.295 897.656,356.739 "/>
    <polygon style="fill: none; fill-opacity:0; stroke-width: 2; stroke: #000000" points="886.897,353.699 895.784,346.916 894.264,352.295 897.656,356.739 "/>
  </g>
  <g>
    <ellipse style="fill: #ffffff" cx="152.32" cy="223" rx="62.35" ry="18"/>
    <ellipse style="fill: none; fill-opacity:0; stroke-width: 2; stroke: #000000" cx="152.32" cy="223" rx="62.35" ry="18"/>
    <text style="fill: #000000;text-anchor:middle;font-size:12.8;font-family:monospace;font-style:normal;font-weight:normal" x="152.32" y="227">Fingerprint</text>
  </g>
  <g>
    <line style="fill: none; fill-opacity:0; stroke-width: 2; stroke: #000000" x1="318" y1="248" x2="224.133" y2="225.29"/>
    <polygon style="fill: #000000" points="216.843,223.526 227.739,221.018 224.133,225.29 225.387,230.737 "/>
    <polygon style="fill: none; fill-opacity:0; stroke-width: 2; stroke: #000000" points="216.843,223.526 227.739,221.018 224.133,225.29 225.387,230.737 "/>
  </g>
  <text style="fill: #000000;text-anchor:start;font-size:12.8;font-family:sanserif;font-style:normal;font-weight:normal" x="56.9696" y="254">
    <tspan x="56.9696" y="254">Fingerprint calculated by CDK</tspan>
  </text>
  <g>
    <ellipse style="fill: #ffffff" cx="183.47" cy="160" rx="58.5" ry="18"/>
    <ellipse style="fill: none; fill-opacity:0; stroke-width: 2; stroke: #000000" cx="183.47" cy="160" rx="58.5" ry="18"/>
    <text style="fill: #000000;text-anchor:middle;font-size:12.8;font-family:monospace;font-style:normal;font-weight:normal" x="183.47" y="164">uploadedAs</text>
  </g>
  <g>
    <line style="fill: none; fill-opacity:0; stroke-width: 2; stroke: #000000" x1="318" y1="248" x2="192.106" y2="182.494"/>
    <polygon style="fill: #000000" points="185.453,179.032 196.632,179.212 192.106,182.494 192.016,188.083 "/>
    <polygon style="fill: none; fill-opacity:0; stroke-width: 2; stroke: #000000" points="185.453,179.032 196.632,179.212 192.106,182.494 192.016,188.083 "/>
  </g>
  <text style="fill: #000000;text-anchor:start;font-size:12.8;font-family:sanserif;font-style:normal;font-weight:normal" x="111.97" y="120">
    <tspan x="111.97" y="120">how was it registerer</tspan>
    <tspan x="111.97" y="136">web crawler, end user</tspan>
  </text>
  <g>
    <ellipse style="fill: #ffffff" cx="293.07" cy="182" rx="43.1" ry="18"/>
    <ellipse style="fill: none; fill-opacity:0; stroke-width: 2; stroke: #000000" cx="293.07" cy="182" rx="43.1" ry="18"/>
    <text style="fill: #000000;text-anchor:middle;font-size:12.8;font-family:monospace;font-style:normal;font-weight:normal" x="293.07" y="186">source</text>
  </g>
  <g>
    <line style="fill: none; fill-opacity:0; stroke-width: 2; stroke: #000000" x1="314.97" y1="244" x2="297.408" y2="208.716"/>
    <polygon style="fill: #000000" points="294.066,202.002 302.998,208.726 297.408,208.716 294.046,213.182 "/>
    <polygon style="fill: none; fill-opacity:0; stroke-width: 2; stroke: #000000" points="294.066,202.002 302.998,208.726 297.408,208.716 294.046,213.182 "/>
  </g>
  <g>
    <ellipse style="fill: #ffffff" cx="-70.5804" cy="326.386" rx="27.7" ry="18"/>
    <ellipse style="fill: none; fill-opacity:0; stroke-width: 2; stroke: #000000" cx="-70.5804" cy="326.386" rx="27.7" ry="18"/>
    <text style="fill: #000000;text-anchor:middle;font-size:12.8;font-family:monospace;font-style:normal;font-weight:normal" x="-70.5804" y="330.386">ID</text>
  </g>
  <g>
    <ellipse style="fill: #ffffff" cx="-105.18" cy="352.386" rx="43.1" ry="18"/>
    <ellipse style="fill: none; fill-opacity:0; stroke-width: 2; stroke: #000000" cx="-105.18" cy="352.386" rx="43.1" ry="18"/>
    <text style="fill: #000000;text-anchor:middle;font-size:12.8;font-family:monospace;font-style:normal;font-weight:normal" x="-105.18" y="356.386">author</text>
  </g>
  <text style="fill: #000000;text-anchor:start;font-size:12.8;font-family:sanserif;font-style:normal;font-weight:normal" x="480.72" y="507.386">
    <tspan x="480.72" y="507.386"></tspan>
  </text>
  <g>
    <ellipse style="fill: #ffffff" cx="-117.33" cy="382.386" rx="46.95" ry="18"/>
    <ellipse style="fill: none; fill-opacity:0; stroke-width: 2; stroke: #000000" cx="-117.33" cy="382.386" rx="46.95" ry="18"/>
    <text style="fill: #000000;text-anchor:middle;font-size:12.8;font-family:monospace;font-style:normal;font-weight:normal" x="-117.33" y="386.386">journal</text>
  </g>
  <g>
    <ellipse style="fill: #ffffff" cx="-128.88" cy="409.386" rx="35.4" ry="18"/>
    <ellipse style="fill: none; fill-opacity:0; stroke-width: 2; stroke: #000000" cx="-128.88" cy="409.386" rx="35.4" ry="18"/>
    <text style="fill: #000000;text-anchor:middle;font-size:12.8;font-family:monospace;font-style:normal;font-weight:normal" x="-128.88" y="413.386">year</text>
  </g>
  <g>
    <ellipse style="fill: #ffffff" cx="-139.88" cy="439.386" rx="35.4" ry="18"/>
    <ellipse style="fill: none; fill-opacity:0; stroke-width: 2; stroke: #000000" cx="-139.88" cy="439.386" rx="35.4" ry="18"/>
    <text style="fill: #000000;text-anchor:middle;font-size:12.8;font-family:monospace;font-style:normal;font-weight:normal" x="-139.88" y="443.386">type</text>
  </g>
  <g>
    <ellipse style="fill: #ffffff" cx="-129.18" cy="468.386" rx="43.1" ry="18"/>
    <ellipse style="fill: none; fill-opacity:0; stroke-width: 2; stroke: #000000" cx="-129.18" cy="468.386" rx="43.1" ry="18"/>
    <text style="fill: #000000;text-anchor:middle;font-size:12.8;font-family:monospace;font-style:normal;font-weight:normal" x="-129.18" y="472.386">volume</text>
  </g>
  <g>
    <ellipse style="fill: #ffffff" cx="-124.18" cy="497.386" rx="43.1" ry="18"/>
    <ellipse style="fill: none; fill-opacity:0; stroke-width: 2; stroke: #000000" cx="-124.18" cy="497.386" rx="43.1" ry="18"/>
    <text style="fill: #000000;text-anchor:middle;font-size:12.8;font-family:monospace;font-style:normal;font-weight:normal" x="-124.18" y="501.386">number</text>
  </g>
  <g>
    <ellipse style="fill: #ffffff" cx="-117.03" cy="523.386" rx="39.25" ry="18"/>
    <ellipse style="fill: none; fill-opacity:0; stroke-width: 2; stroke: #000000" cx="-117.03" cy="523.386" rx="39.25" ry="18"/>
    <text style="fill: #000000;text-anchor:middle;font-size:12.8;font-family:monospace;font-style:normal;font-weight:normal" x="-117.03" y="527.386">pages</text>
  </g>
  <g>
    <line style="fill: none; fill-opacity:0; stroke-width: 2; stroke: #000000" x1="-4.03044" y1="422.506" x2="-46.2161" y2="347.597"/>
    <polygon style="fill: #000000" points="-49.8964,341.062 -40.6327,347.322 -46.2161,347.597 -49.346,352.229 "/>
    <polygon style="fill: none; fill-opacity:0; stroke-width: 2; stroke: #000000" points="-49.8964,341.062 -40.6327,347.322 -46.2161,347.597 -49.346,352.229 "/>
  </g>
  <g>
    <line style="fill: none; fill-opacity:0; stroke-width: 2; stroke: #000000" x1="-4.03044" y1="422.506" x2="-55.8718" y2="359.886"/>
    <polygon style="fill: #000000" points="-60.6545,354.108 -50.4261,358.623 -55.8718,359.886 -58.129,365 "/>
    <polygon style="fill: none; fill-opacity:0; stroke-width: 2; stroke: #000000" points="-60.6545,354.108 -50.4261,358.623 -55.8718,359.886 -58.129,365 "/>
  </g>
  <g>
    <line style="fill: none; fill-opacity:0; stroke-width: 2; stroke: #000000" x1="-4.03044" y1="422.506" x2="-62.049" y2="387.424"/>
    <polygon style="fill: #000000" points="-68.4669,383.543 -57.3225,384.439 -62.049,387.424 -62.4969,392.996 "/>
    <polygon style="fill: none; fill-opacity:0; stroke-width: 2; stroke: #000000" points="-68.4669,383.543 -57.3225,384.439 -62.049,387.424 -62.4969,392.996 "/>
  </g>
  <g>
    <line style="fill: none; fill-opacity:0; stroke-width: 2; stroke: #000000" x1="-4.03044" y1="422.506" x2="-83.8474" y2="410.799"/>
    <polygon style="fill: #000000" points="-91.268,409.711 -80.6483,406.215 -83.8474,410.799 -82.0995,416.109 "/>
    <polygon style="fill: none; fill-opacity:0; stroke-width: 2; stroke: #000000" points="-91.268,409.711 -80.6483,406.215 -83.8474,410.799 -82.0995,416.109 "/>
  </g>
  <g>
    <line style="fill: none; fill-opacity:0; stroke-width: 2; stroke: #000000" x1="-4.03044" y1="422.506" x2="-94.879" y2="437.773"/>
    <polygon style="fill: #000000" points="-102.275,439.015 -93.2421,432.427 -94.879,437.773 -91.5849,442.289 "/>
    <polygon style="fill: none; fill-opacity:0; stroke-width: 2; stroke: #000000" points="-102.275,439.015 -93.2421,432.427 -94.879,437.773 -91.5849,442.289 "/>
  </g>
  <g>
    <line style="fill: none; fill-opacity:0; stroke-width: 2; stroke: #000000" x1="-4.03044" y1="422.506" x2="-77.5826" y2="463.634"/>
    <polygon style="fill: #000000" points="-84.1287,467.295 -77.8409,458.05 -77.5826,463.634 -72.9603,466.778 "/>
    <polygon style="fill: none; fill-opacity:0; stroke-width: 2; stroke: #000000" points="-84.1287,467.295 -77.8409,458.05 -77.5826,463.634 -72.9603,466.778 "/>
  </g>
  <g>
    <line style="fill: none; fill-opacity:0; stroke-width: 2; stroke: #000000" x1="-4.03044" y1="422.506" x2="-74.0983" y2="490.601"/>
    <polygon style="fill: #000000" points="-79.4768,495.828 -75.7902,485.273 -74.0983,490.601 -68.8208,492.444 "/>
    <polygon style="fill: none; fill-opacity:0; stroke-width: 2; stroke: #000000" points="-79.4768,495.828 -75.7902,485.273 -74.0983,490.601 -68.8208,492.444 "/>
  </g>
  <g>
    <line style="fill: none; fill-opacity:0; stroke-width: 2; stroke: #000000" x1="-4.03044" y1="422.506" x2="-72.0344" y2="515.526"/>
    <polygon style="fill: #000000" points="-76.4607,521.581 -74.5954,510.557 -72.0344,515.526 -66.5226,516.459 "/>
    <polygon style="fill: none; fill-opacity:0; stroke-width: 2; stroke: #000000" points="-76.4607,521.581 -74.5954,510.557 -72.0344,515.526 -66.5226,516.459 "/>
  </g>
  <g>
    <rect style="fill: #ffa500" x="-109.18" y="227.386" width="89.6" height="36"/>
    <rect style="fill: none; fill-opacity:0; stroke-width: 2; stroke: #000000" x="-109.18" y="227.386" width="89.6" height="36"/>
    <text style="fill: #000000;text-anchor:middle;font-size:12.8;font-family:monospace;font-style:normal;font-weight:normal" x="-64.3804" y="249.386">Compound</text>
  </g>
  <g>
    <polygon style="fill: #ffffff" points="-163.18,128.937 -123.93,105.387 -84.6804,128.937 -123.93,152.487 "/>
    <polygon style="fill: none; fill-opacity:0; stroke-width: 2; stroke: #000000" points="-163.18,128.937 -123.93,105.387 -84.6804,128.937 -123.93,152.487 "/>
    <text style="fill: #000000;text-anchor:end;font-size:12.8;font-family:monospace;font-style:normal;font-weight:normal" x="-169.18" y="122.937"></text>
    <text style="fill: #000000;text-anchor:start;font-size:12.8;font-family:monospace;font-style:normal;font-weight:normal" x="-78.6804" y="122.937"></text>
    <text style="fill: #000000;text-anchor:middle;font-size:12.8;font-family:monospace;font-style:normal;font-weight:normal" x="-123.93" y="132.937">M - M</text>
  </g>
  <g>
    <polygon style="fill: #ffffff" points="-43.0804,130.937 -3.8304,107.387 35.4196,130.937 -3.8304,154.487 "/>
    <polygon style="fill: none; fill-opacity:0; stroke-width: 2; stroke: #000000" points="-43.0804,130.937 -3.8304,107.387 35.4196,130.937 -3.8304,154.487 "/>
    <text style="fill: #000000;text-anchor:end;font-size:12.8;font-family:monospace;font-style:normal;font-weight:normal" x="-49.0804" y="124.937"></text>
    <text style="fill: #000000;text-anchor:start;font-size:12.8;font-family:monospace;font-style:normal;font-weight:normal" x="41.4196" y="124.937"></text>
    <text style="fill: #000000;text-anchor:middle;font-size:12.8;font-family:monospace;font-style:normal;font-weight:normal" x="-3.8304" y="134.937">M - M</text>
  </g>
  <g>
    <rect style="fill: #f6e9c7" x="-115.28" y="30.8868" width="105" height="36"/>
    <rect style="fill: none; fill-opacity:0; stroke-width: 2; stroke: #000000" x="-115.28" y="30.8868" width="105" height="36"/>
    <text style="fill: #000000;text-anchor:middle;font-size:12.8;font-family:monospace;font-style:normal;font-weight:normal" x="-62.7804" y="52.8868">Similarity</text>
  </g>
  <g>
    <ellipse style="fill: #ffffff" cx="-63.9804" cy="-25.1132" rx="89.3" ry="18"/>
    <ellipse style="fill: none; fill-opacity:0; stroke-width: 2; stroke: #000000" cx="-63.9804" cy="-25.1132" rx="89.3" ry="18"/>
    <text style="fill: #000000;text-anchor:middle;font-size:12.8;font-family:monospace;font-style:normal;font-weight:normal" x="-63.9804" y="-21.1132">tanimotoSimilarity</text>
  </g>
  <g>
    <line style="fill: none; fill-opacity:0; stroke-width: 2; stroke: #000000" x1="-62.7804" y1="66.8868" x2="-115.691" y2="100.199"/>
    <polygon style="fill: #000000" points="-122.038,104.195 -116.24,94.6363 -115.691,100.199 -110.912,103.099 "/>
    <polygon style="fill: none; fill-opacity:0; stroke-width: 2; stroke: #000000" points="-122.038,104.195 -116.24,94.6363 -115.691,100.199 -110.912,103.099 "/>
  </g>
  <g>
    <line style="fill: none; fill-opacity:0; stroke-width: 2; stroke: #000000" x1="-62.7804" y1="66.8868" x2="-11.8552" y2="101.874"/>
    <polygon style="fill: #000000" points="-5.67346,106.121 -16.747,104.579 -11.8552,101.874 -11.0844,96.3369 "/>
    <polygon style="fill: none; fill-opacity:0; stroke-width: 2; stroke: #000000" points="-5.67346,106.121 -16.747,104.579 -11.8552,101.874 -11.0844,96.3369 "/>
  </g>
  <g>
    <line style="fill: none; fill-opacity:0; stroke-width: 2; stroke: #000000" x1="-126.28" y1="155.887" x2="-70.753" y2="220.025"/>
    <polygon style="fill: #000000" points="-65.844,225.695 -76.1695,221.408 -70.753,220.025 -68.6091,214.862 "/>
    <polygon style="fill: none; fill-opacity:0; stroke-width: 2; stroke: #000000" points="-65.844,225.695 -76.1695,221.408 -70.753,220.025 -68.6091,214.862 "/>
  </g>
  <g>
    <line style="fill: none; fill-opacity:0; stroke-width: 2; stroke: #000000" x1="-3.83044" y1="154.487" x2="-58.1596" y2="219.896"/>
    <polygon style="fill: #000000" points="-62.9517,225.666 -60.4085,214.779 -58.1596,219.896 -52.716,221.168 "/>
    <polygon style="fill: none; fill-opacity:0; stroke-width: 2; stroke: #000000" points="-62.9517,225.666 -60.4085,214.779 -58.1596,219.896 -52.716,221.168 "/>
  </g>
  <g>
    <line style="fill: none; fill-opacity:0; stroke-width: 2; stroke: #000000" x1="-62.7804" y1="30.8868" x2="-63.6731" y2="2.61802"/>
    <polygon style="fill: #000000" points="-63.9098,-4.87825 -58.5967,4.95896 -63.6731,2.61802 -68.5917,5.27459 "/>
    <polygon style="fill: none; fill-opacity:0; stroke-width: 2; stroke: #000000" points="-63.9098,-4.87825 -58.5967,4.95896 -63.6731,2.61802 -68.5917,5.27459 "/>
  </g>
  <text style="fill: #000000;text-anchor:start;font-size:12.8;font-family:sanserif;font-style:normal;font-weight:normal" x="0.71956" y="20.8868">
    <tspan x="0.71956" y="20.8868">Once a new compound is to be registered</tspan>
    <tspan x="0.71956" y="36.8868">in the database, its similar compounds up</tspan>
    <tspan x="0.71956" y="52.8868">to some level (e.g. 80%) are identified and</tspan>
    <tspan x="0.71956" y="68.8868">similarity values are stored in this table.</tspan>
  </text>
  <g>
    <ellipse style="fill: #ffffff" cx="500.37" cy="408.886" rx="54.65" ry="18"/>
    <ellipse style="fill: none; fill-opacity:0; stroke-width: 2; stroke: #000000" cx="500.37" cy="408.886" rx="54.65" ry="18"/>
    <text style="fill: #000000;text-anchor:middle;font-size:12.8;font-family:monospace;font-style:normal;font-weight:normal" x="500.37" y="412.886">str_value</text>
  </g>
  <g>
    <ellipse style="fill: #ffffff" cx="496.37" cy="438.386" rx="54.65" ry="18"/>
    <ellipse style="fill: none; fill-opacity:0; stroke-width: 2; stroke: #000000" cx="496.37" cy="438.386" rx="54.65" ry="18"/>
    <text style="fill: #000000;text-anchor:middle;font-size:12.8;font-family:monospace;font-style:normal;font-weight:normal" x="496.37" y="442.386">bin_value</text>
  </g>
  <g>
    <line style="fill: none; fill-opacity:0; stroke-width: 2; stroke: #000000" x1="407.356" y1="421" x2="436.436" y2="411.818"/>
    <polygon style="fill: #000000" points="443.588,409.559 435.557,417.338 436.436,411.818 432.546,407.802 "/>
    <polygon style="fill: none; fill-opacity:0; stroke-width: 2; stroke: #000000" points="443.588,409.559 435.557,417.338 436.436,411.818 432.546,407.802 "/>
  </g>
  <g>
    <line style="fill: none; fill-opacity:0; stroke-width: 2; stroke: #000000" x1="407.356" y1="421" x2="433.033" y2="433.991"/>
    <polygon style="fill: #000000" points="439.725,437.377 428.545,437.324 433.033,433.991 433.059,428.401 "/>
    <polygon style="fill: none; fill-opacity:0; stroke-width: 2; stroke: #000000" points="439.725,437.377 428.545,437.324 433.033,433.991 433.059,428.401 "/>
  </g>
</svg>
