<?xml version="1.0" encoding="UTF-8" standalone="no"?>
<!DOCTYPE svg PUBLIC "-//W3C//DTD SVG 1.0//EN" "http://www.w3.org/TR/2001/PR-SVG-20010719/DTD/svg10.dtd">
<svg width="41cm" height="38cm" viewBox="-41 -278 808 760" xmlns="http://www.w3.org/2000/svg" xmlns:xlink="http://www.w3.org/1999/xlink">
  <g>
    <rect style="fill: #ffffff" x="-2.4724" y="-140.074" width="210.8" height="18"/>
    <rect style="fill: none; fill-opacity:0; stroke-width: 2; stroke: #000000" x="-2.4724" y="-140.074" width="210.8" height="18"/>
    <text style="fill: #000000;text-anchor:middle;font-size:11.2;font-family:sanserif;font-style:normal;font-weight:700" x="102.928" y="-126.074">Compound</text>
    <rect style="fill: #ffffff" x="-2.4724" y="-122.074" width="210.8" height="68"/>
    <rect style="fill: none; fill-opacity:0; stroke-width: 2; stroke: #000000" x="-2.4724" y="-122.074" width="210.8" height="68"/>
    <polygon style="fill: #000000" points="0.5276,-112.074 2.5276,-109.074 4.5276,-112.074 2.5276,-115.074 "/>
    <text style="fill: #000000;text-anchor:start;font-size:12.8;font-family:monospace;font-style:normal;font-weight:normal" x="6.5276" y="-106.074">inchikey</text>
    <text style="fill: #000000;text-anchor:start;font-size:12.8;font-family:monospace;font-style:normal;font-weight:normal" x="101.228" y="-106.074">varchar(27)</text>
    <line style="fill: none; fill-opacity:0; stroke-width: 1; stroke: #000000" x1="6.5276" y1="-104.474" x2="185.928" y2="-104.474"/>
    <ellipse style="fill: none; fill-opacity:0; stroke-width: 0.2; stroke: #000000" cx="2.5276" cy="-96.0736" rx="2" ry="2"/>
    <text style="fill: #000000;text-anchor:start;font-size:12.8;font-family:monospace;font-style:normal;font-weight:normal" x="6.5276" y="-90.0736">uploadedAs</text>
    <text style="fill: #000000;text-anchor:start;font-size:12.8;font-family:monospace;font-style:normal;font-weight:normal" x="101.228" y="-90.0736">varchar(255)</text>
    <ellipse style="fill: none; fill-opacity:0; stroke-width: 0.2; stroke: #000000" cx="2.5276" cy="-80.0736" rx="2" ry="2"/>
    <text style="fill: #000000;text-anchor:start;font-size:12.8;font-family:monospace;font-style:normal;font-weight:normal" x="6.5276" y="-74.0736">source</text>
    <text style="fill: #000000;text-anchor:start;font-size:12.8;font-family:monospace;font-style:normal;font-weight:normal" x="101.228" y="-74.0736">varchar(255)</text>
    <ellipse style="fill: none; fill-opacity:0; stroke-width: 0.2; stroke: #000000" cx="2.5276" cy="-64.0736" rx="2" ry="2"/>
    <text style="fill: #000000;text-anchor:start;font-size:12.8;font-family:monospace;font-style:normal;font-weight:normal" x="6.5276" y="-58.0736">fingerprint</text>
    <text style="fill: #000000;text-anchor:start;font-size:12.8;font-family:monospace;font-style:normal;font-weight:normal" x="101.228" y="-58.0736">varchar(4000)</text>
  </g>
  <g>
    <rect style="fill: #ffffff" x="316.214" y="-140.984" width="187.7" height="18"/>
    <rect style="fill: none; fill-opacity:0; stroke-width: 2; stroke: #000000" x="316.214" y="-140.984" width="187.7" height="18"/>
    <text style="fill: #000000;text-anchor:middle;font-size:11.2;font-family:sanserif;font-style:normal;font-weight:700" x="410.064" y="-126.984">Representation</text>
    <rect style="fill: #ffffff" x="316.214" y="-122.984" width="187.7" height="68"/>
    <rect style="fill: none; fill-opacity:0; stroke-width: 2; stroke: #000000" x="316.214" y="-122.984" width="187.7" height="68"/>
    <ellipse style="fill: #000000" cx="321.214" cy="-112.984" rx="2" ry="2"/>
    <text style="fill: #000000;text-anchor:start;font-size:12.8;font-family:monospace;font-style:normal;font-weight:normal" x="325.214" y="-106.984">name</text>
    <text style="fill: #000000;text-anchor:start;font-size:12.8;font-family:monospace;font-style:normal;font-weight:normal" x="396.814" y="-106.984">varchar(255)</text>
    <ellipse style="fill: #000000" cx="321.214" cy="-96.9838" rx="2" ry="2"/>
    <text style="fill: #000000;text-anchor:start;font-size:12.8;font-family:monospace;font-style:normal;font-weight:normal" x="325.214" y="-90.9838">content</text>
    <text style="fill: #000000;text-anchor:start;font-size:12.8;font-family:monospace;font-style:normal;font-weight:normal" x="396.814" y="-90.9838">longtext</text>
    <ellipse style="fill: none; fill-opacity:0; stroke-width: 0.2; stroke: #000000" cx="321.214" cy="-80.9838" rx="2" ry="2"/>
    <text style="fill: #000000;text-anchor:start;font-size:12.8;font-family:monospace;font-style:normal;font-weight:normal" x="325.214" y="-74.9838">comment</text>
    <text style="fill: #000000;text-anchor:start;font-size:12.8;font-family:monospace;font-style:normal;font-weight:normal" x="396.814" y="-74.9838">varchar(1024)</text>
    <ellipse style="fill: none; fill-opacity:0; stroke-width: 0.2; stroke: #000000" cx="321.214" cy="-64.9838" rx="2" ry="2"/>
    <text style="fill: #000000;text-anchor:start;font-size:12.8;font-family:monospace;font-style:normal;font-weight:normal" x="325.214" y="-58.9838">compound</text>
    <text style="fill: #000000;text-anchor:start;font-size:12.8;font-family:monospace;font-style:normal;font-weight:normal" x="396.814" y="-58.9838">varchar(27)</text>
  </g>
  <g>
    <rect style="fill: #ffffff" x="289.016" y="258.9" width="226.2" height="18"/>
    <rect style="fill: none; fill-opacity:0; stroke-width: 2; stroke: #000000" x="289.016" y="258.9" width="226.2" height="18"/>
    <text style="fill: #000000;text-anchor:middle;font-size:11.2;font-family:sanserif;font-style:normal;font-weight:700" x="402.116" y="272.9">Property</text>
    <rect style="fill: #ffffff" x="289.016" y="276.9" width="226.2" height="100"/>
    <rect style="fill: none; fill-opacity:0; stroke-width: 2; stroke: #000000" x="289.016" y="276.9" width="226.2" height="100"/>
    <polygon style="fill: #000000" points="292.016,286.9 294.016,289.9 296.016,286.9 294.016,283.9 "/>
    <text style="fill: #000000;text-anchor:start;font-size:12.8;font-family:monospace;font-style:normal;font-weight:normal" x="298.016" y="292.9">name</text>
    <text style="fill: #000000;text-anchor:start;font-size:12.8;font-family:monospace;font-style:normal;font-weight:normal" x="415.816" y="292.9">varchar(255)</text>
    <line style="fill: none; fill-opacity:0; stroke-width: 1; stroke: #000000" x1="298.016" y1="294.5" x2="508.216" y2="294.5"/>
    <ellipse style="fill: #000000" cx="294.016" cy="302.9" rx="2" ry="2"/>
    <text style="fill: #000000;text-anchor:start;font-size:12.8;font-family:monospace;font-style:normal;font-weight:normal" x="298.016" y="308.9">unit</text>
    <text style="fill: #000000;text-anchor:start;font-size:12.8;font-family:monospace;font-style:normal;font-weight:normal" x="415.816" y="308.9">varchar(255)</text>
    <ellipse style="fill: #000000" cx="294.016" cy="318.9" rx="2" ry="2"/>
    <text style="fill: #000000;text-anchor:start;font-size:12.8;font-family:monospace;font-style:normal;font-weight:normal" x="298.016" y="324.9">type</text>
    <text style="fill: #000000;text-anchor:start;font-size:12.8;font-family:monospace;font-style:normal;font-weight:normal" x="415.816" y="324.9">varchar(255)</text>
    <ellipse style="fill: none; fill-opacity:0; stroke-width: 0.2; stroke: #000000" cx="294.016" cy="334.9" rx="2" ry="2"/>
    <text style="fill: #000000;text-anchor:start;font-size:12.8;font-family:monospace;font-style:normal;font-weight:normal" x="298.016" y="340.9">condition</text>
    <text style="fill: #000000;text-anchor:start;font-size:12.8;font-family:monospace;font-style:normal;font-weight:normal" x="415.816" y="340.9">varchar(255)</text>
    <ellipse style="fill: none; fill-opacity:0; stroke-width: 0.2; stroke: #000000" cx="294.016" cy="350.9" rx="2" ry="2"/>
    <text style="fill: #000000;text-anchor:start;font-size:12.8;font-family:monospace;font-style:normal;font-weight:normal" x="298.016" y="356.9">description</text>
    <text style="fill: #000000;text-anchor:start;font-size:12.8;font-family:monospace;font-style:normal;font-weight:normal" x="415.816" y="356.9">text</text>
    <ellipse style="fill: #000000" cx="294.016" cy="366.9" rx="2" ry="2"/>
    <text style="fill: #000000;text-anchor:start;font-size:12.8;font-family:monospace;font-style:normal;font-weight:normal" x="298.016" y="372.9">isExperimental</text>
    <text style="fill: #000000;text-anchor:start;font-size:12.8;font-family:monospace;font-style:normal;font-weight:normal" x="415.816" y="372.9">boolean</text>
  </g>
  <g>
    <rect style="fill: #ffffff" x="579.602" y="395.318" width="187.7" height="18"/>
    <rect style="fill: none; fill-opacity:0; stroke-width: 2; stroke: #000000" x="579.602" y="395.318" width="187.7" height="18"/>
    <text style="fill: #000000;text-anchor:middle;font-size:11.2;font-family:sanserif;font-style:normal;font-weight:700" x="673.452" y="409.318">Condition</text>
    <rect style="fill: #ffffff" x="579.602" y="413.318" width="187.7" height="68"/>
    <rect style="fill: none; fill-opacity:0; stroke-width: 2; stroke: #000000" x="579.602" y="413.318" width="187.7" height="68"/>
    <ellipse style="fill: none; fill-opacity:0; stroke-width: 0.2; stroke: #000000" cx="584.602" cy="423.318" rx="2" ry="2"/>
    <text style="fill: #000000;text-anchor:start;font-size:12.8;font-family:monospace;font-style:normal;font-weight:normal" x="588.602" y="429.318">name</text>
    <text style="fill: #000000;text-anchor:start;font-size:12.8;font-family:monospace;font-style:normal;font-weight:normal" x="667.902" y="429.318">varchar(255)</text>
    <ellipse style="fill: none; fill-opacity:0; stroke-width: 0.2; stroke: #000000" cx="584.602" cy="439.318" rx="2" ry="2"/>
    <text style="fill: #000000;text-anchor:start;font-size:12.8;font-family:monospace;font-style:normal;font-weight:normal" x="588.602" y="445.318">str_value</text>
    <text style="fill: #000000;text-anchor:start;font-size:12.8;font-family:monospace;font-style:normal;font-weight:normal" x="667.902" y="445.318">varchar(255)</text>
    <ellipse style="fill: none; fill-opacity:0; stroke-width: 0.2; stroke: #000000" cx="584.602" cy="455.318" rx="2" ry="2"/>
    <text style="fill: #000000;text-anchor:start;font-size:12.8;font-family:monospace;font-style:normal;font-weight:normal" x="588.602" y="461.318">dbl_value</text>
    <text style="fill: #000000;text-anchor:start;font-size:12.8;font-family:monospace;font-style:normal;font-weight:normal" x="667.902" y="461.318">double</text>
    <ellipse style="fill: none; fill-opacity:0; stroke-width: 0.2; stroke: #000000" cx="584.602" cy="471.318" rx="2" ry="2"/>
    <text style="fill: #000000;text-anchor:start;font-size:12.8;font-family:monospace;font-style:normal;font-weight:normal" x="588.602" y="477.318">bin_value</text>
    <text style="fill: #000000;text-anchor:start;font-size:12.8;font-family:monospace;font-style:normal;font-weight:normal" x="667.902" y="477.318">binary</text>
  </g>
  <text style="fill: #000000;text-anchor:start;font-size:12.8;font-family:sanserif;font-style:normal;font-weight:normal" x="314.75" y="-162.365">
    <tspan x="314.75" y="-162.365">Some standard representations:</tspan>
    <tspan x="314.75" y="-146.365">SDF, SMI, CML, MOL</tspan>
  </text>
  <g>
    <rect style="fill: #ffffff" x="20.3262" y="311.832" width="187.7" height="18"/>
    <rect style="fill: none; fill-opacity:0; stroke-width: 2; stroke: #000000" x="20.3262" y="311.832" width="187.7" height="18"/>
    <text style="fill: #000000;text-anchor:middle;font-size:11.2;font-family:sanserif;font-style:normal;font-weight:700" x="114.176" y="325.832">PropertyValue</text>
    <rect style="fill: #ffffff" x="20.3262" y="329.832" width="187.7" height="116"/>
    <rect style="fill: none; fill-opacity:0; stroke-width: 2; stroke: #000000" x="20.3262" y="329.832" width="187.7" height="116"/>
    <polygon style="fill: #000000" points="23.3262,339.832 25.3262,342.832 27.3262,339.832 25.3262,336.832 "/>
    <text style="fill: #000000;text-anchor:start;font-size:12.8;font-family:monospace;font-style:normal;font-weight:normal" x="29.3262" y="345.832">property</text>
    <text style="fill: #000000;text-anchor:start;font-size:12.8;font-family:monospace;font-style:normal;font-weight:normal" x="108.626" y="345.832">varchar(255)</text>
    <line style="fill: none; fill-opacity:0; stroke-width: 1; stroke: #000000" x1="29.3262" y1="347.432" x2="201.026" y2="347.432"/>
    <polygon style="fill: #000000" points="23.3262,355.832 25.3262,358.832 27.3262,355.832 25.3262,352.832 "/>
    <text style="fill: #000000;text-anchor:start;font-size:12.8;font-family:monospace;font-style:normal;font-weight:normal" x="29.3262" y="361.832">compound</text>
    <text style="fill: #000000;text-anchor:start;font-size:12.8;font-family:monospace;font-style:normal;font-weight:normal" x="108.626" y="361.832">varchar(27)</text>
    <line style="fill: none; fill-opacity:0; stroke-width: 1; stroke: #000000" x1="29.3262" y1="363.432" x2="193.326" y2="363.432"/>
    <ellipse style="fill: none; fill-opacity:0; stroke-width: 0.2; stroke: #000000" cx="25.3262" cy="371.832" rx="2" ry="2"/>
    <text style="fill: #000000;text-anchor:start;font-size:12.8;font-family:monospace;font-style:normal;font-weight:normal" x="29.3262" y="377.832">dbl_value</text>
    <text style="fill: #000000;text-anchor:start;font-size:12.8;font-family:monospace;font-style:normal;font-weight:normal" x="108.626" y="377.832">double</text>
    <ellipse style="fill: none; fill-opacity:0; stroke-width: 0.2; stroke: #000000" cx="25.3262" cy="387.832" rx="2" ry="2"/>
    <text style="fill: #000000;text-anchor:start;font-size:12.8;font-family:monospace;font-style:normal;font-weight:normal" x="29.3262" y="393.832">str_value</text>
    <text style="fill: #000000;text-anchor:start;font-size:12.8;font-family:monospace;font-style:normal;font-weight:normal" x="108.626" y="393.832">varchar(255)</text>
    <ellipse style="fill: none; fill-opacity:0; stroke-width: 0.2; stroke: #000000" cx="25.3262" cy="403.832" rx="2" ry="2"/>
    <text style="fill: #000000;text-anchor:start;font-size:12.8;font-family:monospace;font-style:normal;font-weight:normal" x="29.3262" y="409.832">bin_value</text>
    <text style="fill: #000000;text-anchor:start;font-size:12.8;font-family:monospace;font-style:normal;font-weight:normal" x="108.626" y="409.832">binary</text>
    <ellipse style="fill: none; fill-opacity:0; stroke-width: 0.2; stroke: #000000" cx="25.3262" cy="419.832" rx="2" ry="2"/>
    <text style="fill: #000000;text-anchor:start;font-size:12.8;font-family:monospace;font-style:normal;font-weight:normal" x="29.3262" y="425.832">bibref</text>
    <text style="fill: #000000;text-anchor:start;font-size:12.8;font-family:monospace;font-style:normal;font-weight:normal" x="108.626" y="425.832">varchar(255)</text>
    <ellipse style="fill: none; fill-opacity:0; stroke-width: 0.2; stroke: #000000" cx="25.3262" cy="435.832" rx="2" ry="2"/>
    <text style="fill: #000000;text-anchor:start;font-size:12.8;font-family:monospace;font-style:normal;font-weight:normal" x="29.3262" y="441.832">comment</text>
    <text style="fill: #000000;text-anchor:start;font-size:12.8;font-family:monospace;font-style:normal;font-weight:normal" x="108.626" y="441.832">varchar(255)</text>
  </g>
  <g>
    <polyline style="fill: none; fill-opacity:0; stroke-width: 2; stroke: #000000" points="208.026,339.832 248.521,339.832 248.521,286.9 279.28,286.9 "/>
    <polygon style="fill: #000000" points="286.78,286.9 276.78,291.9 279.28,286.9 276.78,281.9 "/>
    <polygon style="fill: none; fill-opacity:0; stroke-width: 2; stroke: #000000" points="286.78,286.9 276.78,291.9 279.28,286.9 276.78,281.9 "/>
    <text style="fill: #000000;text-anchor:start;font-size:9.6;font-family:monospace;font-style:normal;font-weight:normal" x="212.026" y="335.832">1</text>
    <text style="fill: #000000;text-anchor:end;font-size:9.6;font-family:monospace;font-style:normal;font-weight:normal" x="285.016" y="282.9">n</text>
  </g>
  <g>
    <polyline style="fill: none; fill-opacity:0; stroke-width: 2; stroke: #000000" points="20.3262,355.832 -39.9806,355.832 -39.9806,-112.074 -12.2085,-112.074 "/>
    <polygon style="fill: #000000" points="-4.70847,-112.074 -14.7085,-107.074 -12.2085,-112.074 -14.7085,-117.074 "/>
    <polygon style="fill: none; fill-opacity:0; stroke-width: 2; stroke: #000000" points="-4.70847,-112.074 -14.7085,-107.074 -12.2085,-112.074 -14.7085,-117.074 "/>
    <text style="fill: #000000;text-anchor:end;font-size:9.6;font-family:monospace;font-style:normal;font-weight:normal" x="16.3262" y="351.832">1</text>
    <text style="fill: #000000;text-anchor:end;font-size:9.6;font-family:monospace;font-style:normal;font-weight:normal" x="-6.4724" y="-116.074">n</text>
  </g>
  <g>
    <polyline style="fill: none; fill-opacity:0; stroke-width: 2; stroke: #000000" points="316.214,-64.9838 262.271,-64.9838 262.271,-112.074 218.064,-112.074 "/>
    <polygon style="fill: #000000" points="210.564,-112.074 220.564,-117.074 218.064,-112.074 220.564,-107.074 "/>
    <polygon style="fill: none; fill-opacity:0; stroke-width: 2; stroke: #000000" points="210.564,-112.074 220.564,-117.074 218.064,-112.074 220.564,-107.074 "/>
    <text style="fill: #000000;text-anchor:end;font-size:9.6;font-family:monospace;font-style:normal;font-weight:normal" x="312.214" y="-68.9838">1</text>
    <text style="fill: #000000;text-anchor:start;font-size:9.6;font-family:monospace;font-style:normal;font-weight:normal" x="212.328" y="-116.074">n</text>
  </g>
  <g>
    <polyline style="fill: none; fill-opacity:0; stroke-width: 2; stroke: #000000" points="515.216,334.9 547.409,334.9 547.409,423.318 569.866,423.318 "/>
    <polygon style="fill: #000000" points="577.366,423.318 567.366,428.318 569.866,423.318 567.366,418.318 "/>
    <polygon style="fill: none; fill-opacity:0; stroke-width: 2; stroke: #000000" points="577.366,423.318 567.366,428.318 569.866,423.318 567.366,418.318 "/>
    <text style="fill: #000000;text-anchor:start;font-size:9.6;font-family:monospace;font-style:normal;font-weight:normal" x="519.216" y="330.9">1</text>
    <text style="fill: #000000;text-anchor:end;font-size:9.6;font-family:monospace;font-style:normal;font-weight:normal" x="575.602" y="419.318">n</text>
  </g>
  <g>
    <rect style="fill: #ffffff" x="286.056" y="412.736" width="210.8" height="18"/>
    <rect style="fill: none; fill-opacity:0; stroke-width: 2; stroke: #000000" x="286.056" y="412.736" width="210.8" height="18"/>
    <text style="fill: #000000;text-anchor:middle;font-size:11.2;font-family:sanserif;font-style:normal;font-weight:700" x="391.456" y="426.736">BIbref</text>
    <rect style="fill: #ffffff" x="286.056" y="430.736" width="210.8" height="36"/>
    <rect style="fill: none; fill-opacity:0; stroke-width: 2; stroke: #000000" x="286.056" y="430.736" width="210.8" height="36"/>
    <polygon style="fill: #000000" points="289.056,440.736 291.056,443.736 293.056,440.736 291.056,437.736 "/>
    <text style="fill: #000000;text-anchor:start;font-size:12.8;font-family:monospace;font-style:normal;font-weight:normal" x="295.056" y="446.736">id</text>
    <text style="fill: #000000;text-anchor:start;font-size:12.8;font-family:monospace;font-style:normal;font-weight:normal" x="389.756" y="446.736">integer</text>
    <line style="fill: none; fill-opacity:0; stroke-width: 1; stroke: #000000" x1="295.056" y1="448.336" x2="443.656" y2="448.336"/>
    <ellipse style="fill: none; fill-opacity:0; stroke-width: 0.2; stroke: #000000" cx="291.056" cy="456.736" rx="2" ry="2"/>
    <text style="fill: #000000;text-anchor:start;font-size:12.8;font-family:monospace;font-style:normal;font-weight:normal" x="295.056" y="462.736">bib_content</text>
    <text style="fill: #000000;text-anchor:start;font-size:12.8;font-family:monospace;font-style:normal;font-weight:normal" x="389.756" y="462.736">varchar(1000)</text>
  </g>
  <g>
    <polyline style="fill: none; fill-opacity:0; stroke-width: 2; stroke: #000000" points="208.026,419.832 247.041,419.832 247.041,440.736 276.32,440.736 "/>
    <polygon style="fill: #000000" points="283.82,440.736 273.82,445.736 276.32,440.736 273.82,435.736 "/>
    <polygon style="fill: none; fill-opacity:0; stroke-width: 2; stroke: #000000" points="283.82,440.736 273.82,445.736 276.32,440.736 273.82,435.736 "/>
    <text style="fill: #000000;text-anchor:start;font-size:9.6;font-family:monospace;font-style:normal;font-weight:normal" x="212.026" y="415.832">1</text>
    <text style="fill: #000000;text-anchor:end;font-size:9.6;font-family:monospace;font-style:normal;font-weight:normal" x="282.056" y="436.736">n</text>
  </g>
  <g>
    <rect style="fill: #ffffff" x="346.866" y="88.9252" width="149.2" height="18"/>
    <rect style="fill: none; fill-opacity:0; stroke-width: 2; stroke: #000000" x="346.866" y="88.9252" width="149.2" height="18"/>
    <text style="fill: #000000;text-anchor:middle;font-size:11.2;font-family:sanserif;font-style:normal;font-weight:700" x="421.466" y="102.925">Dataset</text>
    <rect style="fill: #ffffff" x="346.866" y="106.925" width="149.2" height="20"/>
    <rect style="fill: none; fill-opacity:0; stroke-width: 2; stroke: #000000" x="346.866" y="106.925" width="149.2" height="20"/>
    <polygon style="fill: #000000" points="349.866,116.925 351.866,119.925 353.866,116.925 351.866,113.925 "/>
    <text style="fill: #000000;text-anchor:start;font-size:12.8;font-family:monospace;font-style:normal;font-weight:normal" x="355.866" y="122.925">name</text>
    <text style="fill: #000000;text-anchor:start;font-size:12.8;font-family:monospace;font-style:normal;font-weight:normal" x="396.666" y="122.925">varchar(255)</text>
    <line style="fill: none; fill-opacity:0; stroke-width: 1; stroke: #000000" x1="355.866" y1="124.525" x2="489.066" y2="124.525"/>
  </g>
  <g>
    <rect style="fill: #ffffff" x="265.824" y="-5.28642" width="180" height="18"/>
    <rect style="fill: none; fill-opacity:0; stroke-width: 2; stroke: #000000" x="265.824" y="-5.28642" width="180" height="18"/>
    <text style="fill: #000000;text-anchor:middle;font-size:11.2;font-family:sanserif;font-style:normal;font-weight:700" x="355.824" y="8.71358">Dataset_to_Compound</text>
    <rect style="fill: #ffffff" x="265.824" y="12.7136" width="180" height="36"/>
    <rect style="fill: none; fill-opacity:0; stroke-width: 2; stroke: #000000" x="265.824" y="12.7136" width="180" height="36"/>
    <polygon style="fill: #000000" points="268.824,22.7136 270.824,25.7136 272.824,22.7136 270.824,19.7136 "/>
    <text style="fill: #000000;text-anchor:start;font-size:12.8;font-family:monospace;font-style:normal;font-weight:normal" x="274.824" y="28.7136">dataset</text>
    <text style="fill: #000000;text-anchor:start;font-size:12.8;font-family:monospace;font-style:normal;font-weight:normal" x="346.424" y="28.7136">varchar(255)</text>
    <line style="fill: none; fill-opacity:0; stroke-width: 1; stroke: #000000" x1="274.824" y1="30.3136" x2="438.824" y2="30.3136"/>
    <polygon style="fill: #000000" points="268.824,38.7136 270.824,41.7136 272.824,38.7136 270.824,35.7136 "/>
    <text style="fill: #000000;text-anchor:start;font-size:12.8;font-family:monospace;font-style:normal;font-weight:normal" x="274.824" y="44.7136">compound</text>
    <text style="fill: #000000;text-anchor:start;font-size:12.8;font-family:monospace;font-style:normal;font-weight:normal" x="346.424" y="44.7136">varchar(27)</text>
    <line style="fill: none; fill-opacity:0; stroke-width: 1; stroke: #000000" x1="274.824" y1="46.3136" x2="431.124" y2="46.3136"/>
  </g>
  <g>
    <polyline style="fill: none; fill-opacity:0; stroke-width: 2; stroke: #000000" points="265.824,38.7136 155.628,38.7136 155.628,-44.3375 "/>
    <polygon style="fill: #000000" points="155.628,-51.8375 160.628,-41.8375 155.628,-44.3375 150.628,-41.8375 "/>
    <polygon style="fill: none; fill-opacity:0; stroke-width: 2; stroke: #000000" points="155.628,-51.8375 160.628,-41.8375 155.628,-44.3375 150.628,-41.8375 "/>
    <text style="fill: #000000;text-anchor:end;font-size:9.6;font-family:monospace;font-style:normal;font-weight:normal" x="261.824" y="34.7136">1</text>
    <text style="fill: #000000;text-anchor:start;font-size:9.6;font-family:monospace;font-style:normal;font-weight:normal" x="159.628" y="-42.0736">n</text>
  </g>
  <g>
    <rect style="fill: #ffffff" x="107.791" y="132.485" width="180" height="18"/>
    <rect style="fill: none; fill-opacity:0; stroke-width: 2; stroke: #000000" x="107.791" y="132.485" width="180" height="18"/>
    <text style="fill: #000000;text-anchor:middle;font-size:11.2;font-family:sanserif;font-style:normal;font-weight:700" x="197.791" y="146.485">Dataset_to_Property</text>
    <rect style="fill: #ffffff" x="107.791" y="150.485" width="180" height="36"/>
    <rect style="fill: none; fill-opacity:0; stroke-width: 2; stroke: #000000" x="107.791" y="150.485" width="180" height="36"/>
    <polygon style="fill: #000000" points="110.791,160.485 112.791,163.485 114.791,160.485 112.791,157.485 "/>
    <text style="fill: #000000;text-anchor:start;font-size:12.8;font-family:monospace;font-style:normal;font-weight:normal" x="116.791" y="166.485">dataset</text>
    <text style="fill: #000000;text-anchor:start;font-size:12.8;font-family:monospace;font-style:normal;font-weight:normal" x="188.391" y="166.485">varchar(255)</text>
    <line style="fill: none; fill-opacity:0; stroke-width: 1; stroke: #000000" x1="116.791" y1="168.085" x2="280.791" y2="168.085"/>
    <polygon style="fill: #000000" points="110.791,176.485 112.791,179.485 114.791,176.485 112.791,173.485 "/>
    <text style="fill: #000000;text-anchor:start;font-size:12.8;font-family:monospace;font-style:normal;font-weight:normal" x="116.791" y="182.485">property</text>
    <text style="fill: #000000;text-anchor:start;font-size:12.8;font-family:monospace;font-style:normal;font-weight:normal" x="188.391" y="182.485">varchar(255)</text>
    <line style="fill: none; fill-opacity:0; stroke-width: 1; stroke: #000000" x1="116.791" y1="184.085" x2="280.791" y2="184.085"/>
  </g>
  <g>
    <polyline style="fill: none; fill-opacity:0; stroke-width: 2; stroke: #000000" points="287.791,176.485 535.216,176.485 535.216,286.9 524.952,286.9 "/>
    <polygon style="fill: #000000" points="517.452,286.9 527.452,281.9 524.952,286.9 527.452,291.9 "/>
    <polygon style="fill: none; fill-opacity:0; stroke-width: 2; stroke: #000000" points="517.452,286.9 527.452,281.9 524.952,286.9 527.452,291.9 "/>
    <text style="fill: #000000;text-anchor:start;font-size:9.6;font-family:monospace;font-style:normal;font-weight:normal" x="291.791" y="172.485">1</text>
    <text style="fill: #000000;text-anchor:start;font-size:9.6;font-family:monospace;font-style:normal;font-weight:normal" x="519.216" y="282.9">n</text>
  </g>
  <g>
    <polyline style="fill: none; fill-opacity:0; stroke-width: 2; stroke: #000000" points="287.791,160.485 317.329,160.485 317.329,116.925 337.13,116.925 "/>
    <polygon style="fill: #000000" points="344.63,116.925 334.63,121.925 337.13,116.925 334.63,111.925 "/>
    <polygon style="fill: none; fill-opacity:0; stroke-width: 2; stroke: #000000" points="344.63,116.925 334.63,121.925 337.13,116.925 334.63,111.925 "/>
    <text style="fill: #000000;text-anchor:start;font-size:9.6;font-family:monospace;font-style:normal;font-weight:normal" x="291.791" y="156.485">1</text>
    <text style="fill: #000000;text-anchor:end;font-size:9.6;font-family:monospace;font-style:normal;font-weight:normal" x="342.866" y="112.925">n</text>
  </g>
  <g>
    <polyline style="fill: none; fill-opacity:0; stroke-width: 2; stroke: #000000" points="445.824,22.7136 516.066,22.7136 516.066,116.925 505.802,116.925 "/>
    <polygon style="fill: #000000" points="498.302,116.925 508.302,111.925 505.802,116.925 508.302,121.925 "/>
    <polygon style="fill: none; fill-opacity:0; stroke-width: 2; stroke: #000000" points="498.302,116.925 508.302,111.925 505.802,116.925 508.302,121.925 "/>
    <text style="fill: #000000;text-anchor:start;font-size:9.6;font-family:monospace;font-style:normal;font-weight:normal" x="449.824" y="18.7136">1</text>
    <text style="fill: #000000;text-anchor:start;font-size:9.6;font-family:monospace;font-style:normal;font-weight:normal" x="500.066" y="112.925">n</text>
  </g>
  <g>
    <rect style="fill: #ffffff" x="-20.2306" y="-278" width="187.7" height="18"/>
    <rect style="fill: none; fill-opacity:0; stroke-width: 2; stroke: #000000" x="-20.2306" y="-278" width="187.7" height="18"/>
    <text style="fill: #000000;text-anchor:middle;font-size:11.2;font-family:sanserif;font-style:normal;font-weight:700" x="73.6194" y="-264">Similarity</text>
    <rect style="fill: #ffffff" x="-20.2306" y="-260" width="187.7" height="52"/>
    <rect style="fill: none; fill-opacity:0; stroke-width: 2; stroke: #000000" x="-20.2306" y="-260" width="187.7" height="52"/>
    <polygon style="fill: #000000" points="-17.2306,-250 -15.2306,-247 -13.2306,-250 -15.2306,-253 "/>
    <text style="fill: #000000;text-anchor:start;font-size:12.8;font-family:monospace;font-style:normal;font-weight:normal" x="-11.2306" y="-244">compound_1</text>
    <text style="fill: #000000;text-anchor:start;font-size:12.8;font-family:monospace;font-style:normal;font-weight:normal" x="75.7694" y="-244">varchar(27)</text>
    <line style="fill: none; fill-opacity:0; stroke-width: 1; stroke: #000000" x1="-11.2306" y1="-242.4" x2="160.469" y2="-242.4"/>
    <polygon style="fill: #000000" points="-17.2306,-234 -15.2306,-231 -13.2306,-234 -15.2306,-237 "/>
    <text style="fill: #000000;text-anchor:start;font-size:12.8;font-family:monospace;font-style:normal;font-weight:normal" x="-11.2306" y="-228">compound_2</text>
    <text style="fill: #000000;text-anchor:start;font-size:12.8;font-family:monospace;font-style:normal;font-weight:normal" x="75.7694" y="-228">varchar(27)</text>
    <line style="fill: none; fill-opacity:0; stroke-width: 1; stroke: #000000" x1="-11.2306" y1="-226.4" x2="160.469" y2="-226.4"/>
    <ellipse style="fill: #000000" cx="-15.2306" cy="-218" rx="2" ry="2"/>
    <text style="fill: #000000;text-anchor:start;font-size:12.8;font-family:monospace;font-style:normal;font-weight:normal" x="-11.2306" y="-212">tanimoto</text>
    <text style="fill: #000000;text-anchor:start;font-size:12.8;font-family:monospace;font-style:normal;font-weight:normal" x="75.7694" y="-212">double</text>
  </g>
  <g>
    <polyline style="fill: none; fill-opacity:0; stroke-width: 2; stroke: #000000" points="-20.2306,-250 -40.2306,-250 -40.2306,-112.074 -12.2085,-112.074 "/>
    <polygon style="fill: #000000" points="-4.70847,-112.074 -14.7085,-107.074 -12.2085,-112.074 -14.7085,-117.074 "/>
    <polygon style="fill: none; fill-opacity:0; stroke-width: 2; stroke: #000000" points="-4.70847,-112.074 -14.7085,-107.074 -12.2085,-112.074 -14.7085,-117.074 "/>
    <text style="fill: #000000;text-anchor:end;font-size:9.59863;font-family:monospace;font-style:normal;font-weight:normal" x="-24.2306" y="-254">1</text>
    <text style="fill: #000000;text-anchor:end;font-size:9.59863;font-family:monospace;font-style:normal;font-weight:normal" x="-6.4724" y="-116.074">n</text>
  </g>
  <g>
    <polyline style="fill: none; fill-opacity:0; stroke-width: 2; stroke: #000000" points="-20.2306,-234 -40.2306,-234 -40.2306,-112.074 -12.2085,-112.074 "/>
    <polygon style="fill: #000000" points="-4.70847,-112.074 -14.7085,-107.074 -12.2085,-112.074 -14.7085,-117.074 "/>
    <polygon style="fill: none; fill-opacity:0; stroke-width: 2; stroke: #000000" points="-4.70847,-112.074 -14.7085,-107.074 -12.2085,-112.074 -14.7085,-117.074 "/>
    <text style="fill: #000000;text-anchor:end;font-size:9.59863;font-family:monospace;font-style:normal;font-weight:normal" x="-24.2306" y="-238">1</text>
    <text style="fill: #000000;text-anchor:end;font-size:9.59863;font-family:monospace;font-style:normal;font-weight:normal" x="-6.4724" y="-116.074">n</text>
  </g>
</svg>
